<?xml version="1.0" encoding="UTF-8" standalone="no"?>
<svg
   viewBox="0 0 815.99998 1056"
   width="816"
   height="1056"
   version="1.1"
   id="svg80"
   sodipodi:docname="BasePlate.svg"
   inkscape:version="1.3.2 (091e20e, 2023-11-25)"
   xmlns:inkscape="http://www.inkscape.org/namespaces/inkscape"
   xmlns:sodipodi="http://sodipodi.sourceforge.net/DTD/sodipodi-0.dtd"
   xmlns="http://www.w3.org/2000/svg"
   xmlns:svg="http://www.w3.org/2000/svg">
  <sodipodi:namedview
     id="namedview80"
     pagecolor="#ffffff"
     bordercolor="#000000"
     borderopacity="0.25"
     inkscape:showpageshadow="2"
     inkscape:pageopacity="0.0"
     inkscape:pagecheckerboard="0"
     inkscape:deskcolor="#d1d1d1"
     inkscape:zoom="0.28549533"
     inkscape:cx="-1779.3636"
     inkscape:cy="479.86775"
     inkscape:window-width="1440"
     inkscape:window-height="847"
     inkscape:window-x="0"
     inkscape:window-y="25"
     inkscape:window-maximized="1"
     inkscape:current-layer="g80">
    <inkscape:page
       x="0"
       y="0"
       width="816"
       height="1056"
       id="page80"
       margin="0"
       bleed="0"
       inkscape:export-filename="../src/zmk-config/fusion360/BasePlate.dxf.pdf"
       inkscape:export-xdpi="96"
       inkscape:export-ydpi="96" />
    <inkscape:page
       x="-1355.5851"
       y="242.57841"
       width="816"
       height="1056"
       id="page81"
       margin="0"
       bleed="0" />
  </sodipodi:namedview>
  <desc
     id="desc1">BasePlate.dxf - scale = 1.000000, origin = (0.000000, 0.000000), method = manual</desc>
  <defs
     id="defs4">
    <marker
       id="DistanceX"
       orient="auto"
       refX="0"
       refY="0"
       style="overflow:visible">
      <path
         d="M 3,-3 -3,3 M 0,-5 V 5"
         style="stroke:#000000;stroke-width:0.5"
         id="path1" />
    </marker>
    <pattern
       id="Hatch"
       patternUnits="userSpaceOnUse"
       width="8"
       height="8"
       x="0"
       y="0">
      <path
         d="M8 4 l-4,4"
         stroke="#000000"
         stroke-width="0.25"
         linecap="square"
         id="path2" />
      <path
         d="M6 2 l-4,4"
         stroke="#000000"
         stroke-width="0.25"
         linecap="square"
         id="path3" />
      <path
         d="M4 0 l-4,4"
         stroke="#000000"
         stroke-width="0.25"
         linecap="square"
         id="path4" />
    </pattern>
    <symbol
       id="*MODEL_SPACE" />
    <symbol
       id="*PAPER_SPACE" />
  </defs>
  <g
     inkscape:groupmode="layer"
     inkscape:label="1"
     id="g4" />
  <g
     inkscape:groupmode="layer"
     inkscape:label="0"
     id="g80">
    <path
       style="fill:none;stroke:#000000"
       d="m 265.79584,289.18984 -137.3006,552.102"
       id="path5" />
    <path
       style="fill:none;stroke:#000000"
       d="m 128.49524,841.29184 366.4934,91.37"
       id="path6" />
    <path
       style="fill:none;stroke:#000000"
       d="m 494.98864,932.66184 130.488,-523.351"
       id="path7" />
    <path
       d="m 199.54291,821.55815 a 4.72441,4.72441 0 0 0 -9.44882,0 4.72441,4.72441 0 0 0 9.44882,0 z"
       style="fill:none;stroke:#000000"
       id="path8" />
    <path
       d="m 164.49864,808.04948 -24.26022,-6.04875 -7.16666,28.74392 a 9.448819,9.448819 0 0 0 6.88227,11.45403 l 56.38962,14.05951 14.47394,-58.0518 85.0871,21.21459 -14.47394,58.0518 23.54995,5.87167 a 9.448819,9.448819 0 0 0 11.45403,-6.88227 L 357.5805,711.4355 a 9.448819,9.448819 0 0 0 -6.88227,-11.45402 L 185.67155,658.83571 a 9.448819,9.448819 0 0 0 -11.45402,6.88227 l -13.43858,53.8992 24.26021,6.04875 -5.31319,21.31007 -24.26022,-6.04875 -9.86543,39.56809 24.26021,6.04875 z"
       style="fill:none;stroke:#000000"
       id="path9" />
    <path
       d="m 343.05883,710.72971 a 3.779528,3.779528 0 0 0 -7.55905,0 3.779528,3.779528 0 0 0 7.55905,0 z"
       style="fill:none;stroke:#000000"
       id="path10" />
    <path
       d="m 186.80305,672.21636 a 2.17701,2.17701 0 0 0 -4.35402,0 2.17701,2.17701 0 0 0 4.35402,0 z"
       style="fill:none;stroke:#000000"
       id="path11" />
    <path
       d="m 148.07805,833.9036 a 3.77953,3.77953 0 0 0 -7.55906,0 3.77953,3.77953 0 0 0 7.55906,0 z"
       style="fill:none;stroke:#000000"
       id="path12" />
    <path
       d="m 301.14758,872.44582 a 2.17701,2.17701 0 0 0 -4.35402,0 2.17701,2.17701 0 0 0 4.35402,0 z"
       style="fill:none;stroke:#000000"
       id="path13" />
    <path
       style="fill:none;stroke:#000000"
       d="m -1065.37,501.031 -129.85,523.509"
       id="path14" />
    <path
       style="fill:none;stroke:#000000"
       d="m -1195.22,1024.54 366.601,90.94"
       id="path15" />
    <path
       style="fill:none;stroke:#000000"
       d="m -828.619,1115.48 137.3,-552.1"
       id="path16" />
    <path
       d="m -843.74167,1049.1708 a 4.72441,4.72441 0 0 0 -9.44882,0 4.72441,4.72441 0 0 0 9.44882,0 z"
       style="fill:none;stroke:#000000"
       id="path17" />
    <path
       d="m -861.93821,1079.5069 -6.01952,24.2675 28.75254,7.132 a 9.448819,9.448819 0 0 0 11.44573,-6.8961 l 13.99156,-56.4065 -58.0692,-14.404 21.11207,-85.11258 58.0692,14.40399 5.84328,-23.55701 a 9.448819,9.448819 0 0 0 -6.89606,-11.44573 l -165.07613,-40.94691 a 9.448819,9.448819 0 0 0 -11.44573,6.89606 l -40.94693,165.07608 a 9.448819,9.448819 0 0 0 6.8961,11.4458 l 53.91534,13.3736 6.01952,-24.2675 21.31645,5.2875 -6.01952,24.2675 39.57995,9.8178 6.01952,-24.2675 z"
       style="fill:none;stroke:#000000"
       id="path18" />
    <path
       d="m -955.68895,904.84359 a 3.77953,3.77953 0 0 0 -7.55906,0 3.77953,3.77953 0 0 0 7.55906,0 z"
       style="fill:none;stroke:#000000"
       id="path19" />
    <path
       d="m -995.61847,1059.5431 a 2.177008,2.177008 0 0 0 -4.35401,0 2.177008,2.177008 0 0 0 4.35401,0 z"
       style="fill:none;stroke:#000000"
       id="path20" />
    <path
       d="m -832.28023,1099.6758 a 3.77953,3.77953 0 0 0 -7.55906,0 3.77953,3.77953 0 0 0 7.55906,0 z"
       style="fill:none;stroke:#000000"
       id="path21" />
    <path
       d="m -795.52692,944.95745 a 2.177008,2.177008 0 0 0 -4.35401,0 2.177008,2.177008 0 0 0 4.35401,0 z"
       style="fill:none;stroke:#000000"
       id="path22" />
    <path
       d="m 199.54291,821.55815 a 4.72441,4.72441 0 0 0 -9.44882,0 4.72441,4.72441 0 0 0 9.44882,0 z"
       style="fill:none;stroke:#000000"
       id="path23" />
    <path
       d="m 184.44286,806.51596 25.31162,6.3109 -5.56214,22.30855 -25.31162,-6.3109 z"
       style="fill:none;stroke:#000000"
       id="path24" />
    <path
       d="m -843.74167,1049.1708 a 4.72441,4.72441 0 0 0 -9.44882,0 4.72441,4.72441 0 0 0 9.44882,0 z"
       style="fill:none;stroke:#000000"
       id="path25" />
    <path
       d="m -863.49575,1059.5645 6.2804,-25.3192 22.31523,5.5353 -6.2804,25.3192 z"
       style="fill:none;stroke:#000000"
       id="path26" />
    <path
       d="m -956.04079,981.48811 12.7382,-51.35365 30.75498,7.62873 -12.73821,51.35365 z"
       style="fill:none;stroke:#000000"
       id="path27" />
    <path
       d="m 262.63071,714.06506 51.33826,12.80007 -7.66577,30.74575 -51.33827,-12.80007 z"
       style="fill:none;stroke:#000000"
       id="path28" />
    <path
       d="m -915.98115,513.96177 a 10.771655,10.771655 0 0 0 -21.54331,0 10.771655,10.771655 0 0 0 21.54331,0 z"
       style="fill:none;stroke:#000000"
       id="path29" />
    <path
       d="m -987.58938,718.903 a 10.77166,10.77166 0 0 0 -21.54332,0 10.77166,10.77166 0 0 0 21.54332,0 z"
       style="fill:none;stroke:#000000"
       id="path30" />
    <path
       d="m -1164.5464,1006.3114 a 10.771654,10.771654 0 0 0 -21.5433,0 10.771654,10.771654 0 0 0 21.5433,0 z"
       style="fill:none;stroke:#000000"
       id="path31" />
    <path
       d="m 507.72434,355.80751 a 10.771654,10.771654 0 0 0 -21.5433,0 10.771654,10.771654 0 0 0 21.5433,0 z"
       style="fill:none;stroke:#000000"
       id="path32" />
    <path
       d="m 496.71463,907.23439 a 10.771655,10.771655 0 0 0 -21.54331,0 10.771655,10.771655 0 0 0 21.54331,0 z"
       style="fill:none;stroke:#000000"
       id="path33" />
    <path
       d="m 474.99512,570.4175 a 10.771655,10.771655 0 0 0 -21.54331,0 10.771655,10.771655 0 0 0 21.54331,0 z"
       style="fill:none;stroke:#000000"
       id="path34" />
    <path
       style="fill:none;stroke:#000000"
       d="m -1190.19,1049.97 14.87,-43.66"
       id="path35" />
    <path
       style="fill:none;stroke:#000000"
       d="m -1175.32,1006.31 46.43,15.82"
       id="path36" />
    <path
       style="fill:none;stroke:#000000"
       d="m -1016.5,1089.46 18.705,-29.92"
       id="path37" />
    <path
       style="fill:none;stroke:#000000"
       d="m -997.795,1059.54 54.108,33.83"
       id="path38" />
    <path
       style="fill:none;stroke:#000000"
       d="m -935.717,972.421 -23.751,-67.577"
       id="path39" />
    <path
       style="fill:none;stroke:#000000"
       d="m -959.468,904.844 -7.25,2.548"
       id="path40" />
    <path
       style="fill:none;stroke:#000000"
       d="m -794.199,945.625 -3.505,-0.668"
       id="path41" />
    <path
       style="fill:none;stroke:#000000"
       d="m -797.704,944.957 -11.804,61.983"
       id="path42" />
    <path
       style="fill:none;stroke:#000000"
       d="m -836.06,1099.68 13.434,3.33"
       id="path43" />
    <path
       style="fill:none;stroke:#000000"
       d="m -836.06,1099.68 -9.06,36.52"
       id="path44" />
    <path
       style="fill:none;stroke:#000000"
       d="m -852.088,1048.92 3.622,0.25"
       id="path45" />
    <path
       style="fill:none;stroke:#000000"
       d="m -848.466,1049.17 -4.59,65.24"
       id="path46" />
    <path
       style="fill:none;stroke:#000000"
       d="m -861.975,836.99 24.294,1.71"
       id="path47" />
    <path
       style="fill:none;stroke:#000000"
       d="m -837.681,838.7 -30.031,121.072"
       id="path48" />
    <path
       style="fill:none;stroke:#000000"
       d="m -998.361,718.903 -4.369,62.085"
       id="path49" />
    <path
       style="fill:none;stroke:#000000"
       d="m -998.361,718.903 -77.769,-5.473"
       id="path50" />
    <path
       style="fill:none;stroke:#000000"
       d="m -969.811,513.962 h 43.058"
       id="path51" />
    <path
       style="fill:none;stroke:#000000"
       d="m -926.753,513.962 -8.936,80.848"
       id="path52" />
    <path
       d="m -825.68053,838.69998 a 12,12 0 0 0 -24,0 12,12 0 0 0 24,0 z"
       style="fill:none;stroke:#000000"
       id="path53" />
    <path
       style="fill:none;stroke:#000000"
       d="m 494.97464,907.02184 -9.032,0.21"
       id="path54" />
    <path
       style="fill:none;stroke:#000000"
       d="m 485.94264,907.23184 -1.018,-44.3"
       id="path55" />
    <path
       style="fill:none;stroke:#000000"
       d="m 196.84304,798.87184 -2.0245,22.69"
       id="path56" />
    <path
       style="fill:none;stroke:#000000"
       d="m 194.81854,821.56184 42.5891,3.8"
       id="path57" />
    <path
       style="fill:none;stroke:#000000"
       d="m 302.55964,849.30184 -3.5891,23.14"
       id="path58" />
    <path
       style="fill:none;stroke:#000000"
       d="m 298.97054,872.44184 19.7067,3.06"
       id="path59" />
    <path
       style="fill:none;stroke:#000000"
       d="m 155.07224,815.30184 -10.7737,18.6"
       id="path60" />
    <path
       style="fill:none;stroke:#000000"
       d="m 144.29854,833.90184 26.7712,15.51"
       id="path61" />
    <path
       style="fill:none;stroke:#000000"
       d="m 196.12304,685.78184 -11.497,-13.57"
       id="path62" />
    <path
       style="fill:none;stroke:#000000"
       d="m 184.62604,672.21184 14.8101,-12.55"
       id="path63" />
    <path
       style="fill:none;stroke:#000000"
       d="m 333.71864,705.69184 5.561,5.04"
       id="path64" />
    <path
       style="fill:none;stroke:#000000"
       d="m 339.27964,710.73184 2.622,-2.9"
       id="path65" />
    <path
       style="fill:none;stroke:#000000"
       d="m 464.45764,562.16184 -0.234,8.26"
       id="path66" />
    <path
       style="fill:none;stroke:#000000"
       d="m 464.22364,570.42184 113.752,3.22"
       id="path67" />
    <path
       style="fill:none;stroke:#000000"
       d="m 488.89464,365.13084 8.058,-9.323"
       id="path68" />
    <path
       style="fill:none;stroke:#000000"
       d="m 496.95264,355.80784 12.704,10.979"
       id="path69" />
    <path
       style="fill:none;stroke:#000000"
       d="m 262.63874,600.89184 3.5077,0.1"
       id="path70" />
    <path
       style="fill:none;stroke:#000000"
       d="m 266.14644,600.99184 -0.0603,2.13"
       id="path71" />
    <path
       d="m 278.14641,600.99569 a 12,12 0 0 0 -24,0 12,12 0 0 0 24,0 z"
       style="fill:none;stroke:#000000"
       id="path72" />
    <path
       style="fill:none;stroke:#000000"
       d="m 625.47664,409.31084 -79.416,-53.653"
       id="path73" />
    <path
       d="M 426.23152,274.8339 A 138.09733,138.09733 0 0 0 326.51419,253.06998"
       style="fill:none;stroke:#000000"
       id="path74" />
    <path
       d="m -728.04523,503.02653 a 138.09733,138.09733 0 0 0 -98.2959,-27.47964"
       style="fill:none;stroke:#000000"
       id="path75" />
    <path
       style="fill:none;stroke:#000000"
       d="m -826.341,475.547 -143.729,15.28"
       id="path76" />
    <path
       style="fill:none;stroke:#000000"
       d="m 546.06064,355.65784 -119.829,-80.824"
       id="path77" />
    <path
       style="fill:none;stroke:#000000"
       d="m -970.07,490.827 -95.3,10.204"
       id="path78" />
    <path
       d="m -727.66013,503.32108 c 12.76776,9.7865 23.49133,20.28709 30.01349,30.57827 5.85044,9.23128 8.24758,18.25174 6.86834,26.83923 -0.14202,0.88427 -0.32241,1.76465 -0.54043,2.6413"
       style="fill:none;stroke:#000000"
       id="path79" />
    <path
       d="m 326.03597,253.14976 c -15.86457,2.66599 -30.25757,6.9204 -40.84046,12.95778 -9.49292,5.41557 -15.83608,12.26244 -18.63995,20.49566 -0.28872,0.84778 -0.54171,1.71009 -0.75973,2.58675"
       style="fill:none;stroke:#000000"
       id="path80" />
  </g>
</svg>
